PathFileType	4	(X/Y/Z)	OpenSim_Sub07_CSBaseline_Accel.trc
DataRate	CameraRate	NumFrames	NumMarkers	Units	OrigDataRate	OrigDataStartFrame	OrigNumFrames
100	100	17	8	m	100	3895	7788
Frame#	Time	torso_imu_offset_imu	pelvis_imu_offset_imu	tibia_r_imu_offset_imu	femur_r_imu_offset_imu	tibia_l_imu_offset_imu	femur_l_imu_offset_imu	toes_r_imu_offset_imu	toes_l_imu_offset_imu
				X1	Y1	Z1	X2	Y2	Z2	X3	Y3	Z3	X4	Y4	Z4	X5	Y5	Z5	X6	Y6	Z6	X7	Y7	Z7	X8		Y8	Z8	

3895	38.94000000	-7.94569784	0.62627726	6.36633452	8.89053742	0.43496724	2.52749601	8.95381334	5.14453553	-0.56265401	9.38829650	-0.05404896	0.22678159	1.46280793	-1.94512076	5.32519407	8.98105659	2.68650464	0.62054352	4.85329468	1.08622006	8.62919496	0.26568589	4.45584004	7.37779736
3896	38.95000000	-7.88764634	0.69771124	6.31456661	8.85804341	0.27308139	2.48156487	9.73578330	3.46349377	-0.31406923	9.22228784	-0.12571073	0.35472307	1.16673403	-2.06723024	6.23945323	9.10166242	2.52700565	0.28328980	5.04435645	1.12492969	8.46536820	1.52531493	4.47042969	8.07069487
3897	38.96000000	-7.91821127	0.74785148	6.25692746	8.81131573	0.26895477	2.41959336	10.20694474	1.39659691	-0.15813460	9.02027064	-0.18386036	0.41428080	1.00059776	-2.62975977	6.32737878	9.21490119	2.18226695	0.13747429	4.86423050	1.09169928	8.65836974	1.33852710	4.07857363	8.19726950
3898	38.97000000	-7.95180107	0.77322698	6.26357748	8.75771338	0.30439744	2.40942381	10.29278814	-0.37843229	-0.26846231	9.01816427	-0.21212422	0.36011782	1.47909526	-3.18994515	6.19214865	9.03413413	2.13333992	-0.09166348	4.98845164	1.08067545	8.63021792	0.85172060	3.45427435	7.78862842
3899	38.98000000	-7.91279225	0.76964653	6.26733995	8.80861475	0.45187117	2.38485968	10.39351096	-1.16402265	-0.25178413	9.25330624	-0.30229320	0.26118766	2.31311380	-3.01220989	6.38337053	8.72243502	2.03841767	-0.25882941	5.00246914	1.15250795	8.60095041	-0.01209284	2.75647725	7.25382687
3900	38.99000000	-7.88624956	0.73054028	6.33095601	8.84243231	0.66309315	2.35702906	10.24714136	-0.92957508	-0.32599599	9.57063940	-0.38317916	0.24583452	2.63954131	-2.27598568	7.22440740	8.42234534	1.85093614	-0.39757103	4.89147517	1.37978419	8.56674004	-0.32945208	2.14289234	6.90025361
3901	39	-8.07000962	0.76811000	6.39233215	8.89860608	0.85202152	2.29072808	10.17464407	-0.17276888	-0.05386601	9.78202955	-0.39324822	0.20564305	3.17593803	-1.00685497	7.43901732	8.31111864	1.43455387	-0.37486984	5.02669750	1.32035133	8.72562740	0.88317099	1.74462407	6.98112456
3902	39.01000000	-8.16334806	0.79433471	6.38960625	9.00726672	0.91410696	2.26275685	10.12537725	0.62810424	0.05346390	9.79066549	-0.43733234	0.16148426	3.86397778	0.31938687	5.23265445	8.14617835	1.21161320	-0.35748549	4.81611481	1.20852580	8.73269392	2.89455870	1.74048001	7.67899017
3903	39.02000000	-8.13129750	0.80447650	6.43023109	9.09325886	1.10574060	2.20296635	9.87765191	0.84771523	-0.25988869	9.68267346	-0.67684607	0.12527862	3.50228663	-0.27250106	2.30925207	7.94290909	1.23432996	-0.46442151	4.90672560	1.30679863	8.72946353	4.57850830	1.59579183	8.30433344
3904	39.03000000	-8.15251748	0.87801141	6.50991025	9.23061286	1.09180692	2.21407517	9.88143297	0.88871657	-0.48178961	9.61897943	-1.10175698	0.07884497	3.36751448	-3.01149500	0.38844788	7.98401008	1.14151152	-0.36178527	5.16440305	1.20253075	8.57548904	5.60376899	1.20899064	8.89192569
3905	39.04000000	-8.16594566	0.94722849	6.57552817	9.33585521	0.99797861	2.18968755	10.02582703	1.30539560	-0.70537768	9.53487701	-1.34699117	0.11651639	4.06878846	-6.37629646	-0.78562876	7.68794787	1.05200606	-0.27937919	5.42465277	1.28260021	8.48235463	6.10677740	0.34785274	9.74676385
3906	39.05000000	-8.25897075	1.04379120	6.66299000	9.33305299	1.07479656	2.08033062	9.69984960	1.34662126	-0.64184566	9.45200750	-1.54739048	0.06084666	5.46146721	-8.52322892	-1.45462619	7.54969408	0.89497383	-0.15134489	5.25081264	1.41501807	8.58952810	7.42402569	-0.46525506	10.82141621
3907	39.06000000	-8.34613259	1.07327739	6.62833453	9.24611556	1.07326811	2.01511227	9.82308287	0.58233665	-0.45849110	9.37060820	-1.58264698	-0.01496898	7.10017738	-8.95446918	-1.00264851	7.62224226	0.91230263	-0.06280112	5.00618527	1.23750715	8.64282285	9.66879280	-1.04061631	11.82084216
3908	39.07000000	-8.44382125	1.12142000	6.59935097	9.16804592	1.03739040	1.98615607	9.97366020	-0.36864531	-0.45326495	9.24850419	-1.52689658	-0.03955279	8.04390322	-8.96644478	0.03272280	7.73002012	0.98347074	0.06444710	5.12179743	1.15104554	8.60202092	11.06359676	-1.72656797	11.87415406
3909	39.08000000	-8.44409998	1.12603338	6.62602035	9.07328363	1.11116134	1.95833393	9.79180957	-1.15596467	-0.29932390	9.22440506	-1.30879232	-0.04464423	8.12340619	-8.53092399	0.98320537	8.05282961	1.25988667	0.12272992	5.49479289	1.06666312	8.40511486	11.26478175	-1.82373943	11.60455394
3910	39.09000000	-8.41195383	1.14892991	6.61015512	9.07320857	1.16701195	2.01631832	9.56987315	-1.76259411	-0.18996959	9.08574588	-0.92674203	-0.02491828	7.84815096	-7.55470619	1.76978411	8.25145702	1.68090777	0.14280844	5.01649231	0.99509002	8.54046659	11.59910229	-1.77771638	11.52603414
3911	39.10000000	-8.34074764	1.19640063	6.64053215	9.04961298	1.19470180	2.14044437	9.45861097	-1.94170119	-0.09779515	9.07528211	-0.56549019	0.03026900	7.65417477	-6.19665410	2.31807573	8.21371828	1.79046479	0.10259185	5.00174355	0.90632130	8.57615653	13.32286831	-0.92861998	12.24539324
